<?xml version="1.0" standalone="no"?>
<!DOCTYPE svg PUBLIC "-//W3C//DTD SVG 20010904//EN"
 "http://www.w3.org/TR/2001/REC-SVG-20010904/DTD/svg10.dtd">
<svg version="1.0" xmlns="http://www.w3.org/2000/svg"
 width="471.000000pt" height="444.000000pt" viewBox="0 0 471.000000 444.000000"
 preserveAspectRatio="xMidYMid meet">

<g transform="translate(0.000000,444.000000) scale(0.100000,-0.100000)"
fill="#000000" stroke="none">
<path d="M2050 3499 c-112 -16 -188 -57 -272 -146 -83 -89 -122 -196 -117
-320 l4 -75 -49 -25 c-66 -33 -132 -103 -164 -171 -37 -80 -42 -194 -12 -275
30 -80 111 -165 192 -203 60 -27 72 -29 218 -32 124 -3 158 -7 173 -19 15 -14
17 -36 17 -178 0 -112 -4 -165 -12 -173 -9 -9 -96 -12 -329 -12 l-318 0 -46
40 c-50 43 -78 49 -125 25 -90 -47 -54 -185 49 -185 33 0 46 6 76 38 l37 37
351 3 c262 2 353 6 359 15 4 7 8 96 8 199 0 220 -7 208 123 208 122 0 117 12
117 -257 l0 -221 -25 -23 c-60 -55 -69 -123 -22 -167 67 -62 167 -19 167 73 0
26 -9 45 -35 74 l-35 38 0 231 c0 218 1 232 19 242 28 14 173 13 194 -2 15
-11 17 -39 19 -208 l3 -195 346 -5 346 -5 42 -37 c62 -57 134 -49 166 19 33
69 -12 138 -90 138 -37 0 -50 -6 -82 -38 l-39 -37 -310 0 c-228 0 -313 3 -322
12 -8 8 -12 61 -12 173 0 142 2 164 18 178 14 13 55 16 252 19 220 3 238 4
281 26 71 35 125 87 158 154 26 51 31 73 31 133 0 93 -21 153 -76 214 -54 60
-131 100 -207 108 l-54 6 -5 67 c-16 226 -239 360 -454 274 -36 -14 -66 -24
-67 -22 -1 1 -13 24 -26 50 -83 166 -273 264 -461 237z m243 -154 c96 -47 171
-142 198 -249 l11 -46 40 36 c54 48 99 65 173 66 121 1 219 -81 247 -204 8
-39 1 -102 -17 -150 -7 -17 -5 -17 29 -3 143 60 316 -58 316 -215 0 -84 -55
-171 -134 -213 l-41 -22 -670 0 c-659 0 -671 0 -715 21 -102 47 -159 125 -167
228 -7 79 14 148 62 204 35 40 123 92 157 92 15 0 17 5 11 28 -5 15 -8 68 -8
117 1 78 4 97 27 141 49 94 116 155 208 188 72 26 200 17 273 -19z m-993
-1455 c24 -24 25 -48 4 -78 -30 -43 -104 -17 -104 36 0 56 61 81 100 42z
m2170 0 c24 -24 25 -48 4 -78 -18 -26 -65 -30 -88 -6 -9 8 -16 28 -16 44 0 56
60 80 100 40z m-1072 -198 c30 -39 0 -102 -50 -102 -26 0 -58 36 -58 64 0 53
75 80 108 38z"/>
<path d="M1813 1400 c-36 -35 -108 -192 -99 -215 12 -33 41 -9 78 68 21 42 39
77 40 77 2 0 3 -157 3 -349 0 -358 2 -379 38 -365 15 5 17 40 19 343 l3 336
32 -67 c23 -50 37 -68 51 -68 11 0 22 6 25 13 7 19 -74 195 -105 229 -33 35
-47 35 -85 -2z"/>
<path d="M2865 1398 c-34 -40 -105 -181 -105 -208 0 -16 5 -21 23 -18 16 2 30
20 52 66 16 34 33 62 37 62 4 0 5 -125 1 -277 -3 -153 -3 -300 1 -326 7 -45
27 -69 44 -52 4 3 9 160 12 348 l5 342 37 -85 c26 -60 42 -86 56 -88 34 -5 32
25 -6 114 -37 88 -86 154 -115 154 -8 0 -27 -14 -42 -32z"/>
<path d="M2294 1026 c-15 -18 -44 -73 -65 -122 -31 -72 -36 -91 -25 -102 23
-23 44 -2 73 71 l28 72 5 -375 c3 -206 7 -376 8 -378 1 -2 12 -2 25 0 l22 3 5
378 5 378 37 -75 c28 -57 43 -76 58 -76 29 0 26 29 -13 113 -38 82 -90 147
-118 147 -10 0 -30 -15 -45 -34z"/>
</g>
</svg>
